Video
                                       
Format                                   : AVC
Format/Info                              : Advanced Video Codec
Format profile                           : High@L4.0
Duration                                 : 1h 29mn
Bit rate                                 : 2 292 Kbps
Width                                    : 1 920 pixels
Height                                   : 816 pixels
Display aspect ratio                     : 2.35:1
Frame rate                               : 23.976 fps
Stream size                              : 1.40 GiB (76%)


Audio

Format                                   : AC-3
Format/Info                              : Audio Coding 3
Codec ID                                 : A_AC3
Duration                                 : 1h 29mn
Bit rate                                 : 640 Kbps
Channel(s)                               : 6 channels
Stream size                              : 410 MiB (22%)
Language                                 : English


Text

Format                                   : UTF-8
Codec ID                                 : S_TEXT/UTF8
Codec ID/Info                            : UTF-8 Plain Text
Language                                 : English
Default                                  : Yes
 
Sources

Video: Austin Powers:International Man of Mystery(1997)1080p - YIFY
Audio: BluRay Rip